#!OML:ASF G:\JayActor3\Patient Classification 1\Patient 1\Session 2\male.ASF
:FULLY-SPECIFIED
:DEGREES
2668
root 32.3479 16.6486 -7.42076 1312.02 -89.4744 488.166
lowerback 1.05602 1.08445 -0.903294
upperback 9.64139 1.26349 -1.72784
thorax 9.60208 0.479941 -1.26466
lowerneck 1.74259 -0.0759247 -1.8973
upperneck 15.2825 -1.35441 6.72828
head 4.3228 -0.612177 2.33145
rclavicle -1.15295e-014 -2.42517e-014
rhumerus -30.2758 3.76196 -92.1904
rradius 50.1051
rwrist -1.49648
rhand -33.4942 8.94137
rfingers 7.12502
rthumb -6.69129 -20.9329
lclavicle -1.15295e-014 -2.42517e-014
lhumerus -17.771 -12.7562 89.5671
lradius 51.4362
lwrist 21.4069
lhand -26.1923 21.4374
lfingers 7.12502
lthumb 0.360029 51.4169
rfemur -33.1845 6.33001 20.0474
rtibia 57.0374
rfoot -18.7945 -7.89685
rtoes 5.67848
lfemur -8.83687 6.70228 -25.2443
ltibia 28.0035
lfoot -15.4643 8.52718
ltoes -4.40886
2669
root 32.2356 16.6575 -7.41856 1305.42 -89.4039 494.755
lowerback 0.981667 0.92317 -1.07194
upperback 9.56689 1.04932 -1.57746
thorax 9.55132 0.356003 -1.02461
lowerneck 1.60384 -0.0715 -2.15383
upperneck 15.2062 -1.38327 7.09304
head 4.32508 -0.620982 2.48573
rclavicle 6.16232e-015 -1.98785e-015
rhumerus -30.3702 3.98859 -92.0277
rradius 50.0373
rwrist -1.48076
rhand -33.5165 8.93108
rfingers 7.12502
rthumb -6.71284 -20.9425
lclavicle 6.16232e-015 -1.98785e-015
lhumerus -17.8963 -12.863 89.7689
lradius 52.222
lwrist 21.4929
lhand -26.126 21.6104
lfingers 7.12502
lthumb 0.424051 51.5897
rfemur -33.3046 6.50805 19.8978
rtibia 54.9531
rfoot -18.8636 -7.62989
rtoes 5.57421
lfemur -8.10899 6.69638 -25.2171
ltibia 27.5033
lfoot -15.4775 8.61359
ltoes -4.62317
2670
root 32.1232 16.6669 -7.41717 1301.54 -89.3416 498.625
lowerback 0.904295 0.778355 -1.22269
upperback 9.49552 0.857711 -1.44197
thorax 9.50965 0.245516 -0.809065
lowerneck 1.50208 -0.0934094 -2.40201
upperneck 15.1318 -1.45741 7.5179
head 4.3243 -0.649976 2.656
rclavicle -1.05356e-014 -2.38542e-015
rhumerus -30.4654 4.17909 -91.8838
rradius 49.9738
rwrist -1.47133
rhand -33.531 8.92365
rfingers 7.12502
rthumb -6.72687 -20.9495
lclavicle -1.05356e-014 -2.38542e-015
lhumerus -18.0115 -13.0126 89.9682
lradius 52.9386
lwrist 21.5817
lhand -26.0834 21.8369
lfingers 7.12502
lthumb 0.46523 51.8161
rfemur -33.3586 6.65266 19.7542
rtibia 52.8307
rfoot -18.8793 -7.39914
rtoes 5.49855
lfemur -7.35856 6.67349 -25.1923
ltibia 26.9719
lfoot -15.4535 8.71042
ltoes -4.88743
2671
root 32.0105 16.6766 -7.41676 1299.61 -89.2894 500.544
lowerback 0.820763 0.652749 -1.3588
upperback 9.42444 0.692965 -1.32438
thorax 9.47489 0.150498 -0.618994
lowerneck 1.44314 -0.144989 -2.63541
upperneck 15.0631 -1.58259 8.00205
head 4.3214 -0.702082 2.84083
rclavicle 7.35503e-015 1.59028e-015
rhumerus -30.5705 4.31933 -91.7598
rradius 49.9228
rwrist -1.47714
rhand -33.5261 8.91256
rfingers 7.12502
rthumb -6.72207 -20.9607
lclavicle 7.35503e-015 1.59028e-015
lhumerus -18.1194 -13.2192 90.1632
lradius 53.5808
lwrist 21.6718
lhand -26.0594 22.096
lfingers 7.12502
lthumb 0.488384 52.0752
rfemur -33.3599 6.7657 19.6175
rtibia 50.6883
rfoot -18.8063 -7.22966
rtoes 5.44882
lfemur -6.59546 6.63601 -25.172
ltibia 26.42
lfoot -15.3967 8.81594
ltoes -5.1995
2672
root 31.8978 16.6864 -7.41738 1299.07 -89.2467 501.06
lowerback 0.731094 0.550411 -1.47837
upperback 9.35297 0.560673 -1.22726
thorax 9.44553 0.0739446 -0.457724
lowerneck 1.42975 -0.230994 -2.85194
upperneck 14.9997 -1.76597 8.54565
head 4.31681 -0.781049 3.0398
rclavicle 7.95139e-016 -3.97569e-016
rhumerus -30.6856 4.40159 -91.656
rradius 49.8823
rwrist -1.51284
rhand -33.5024 8.90493
rfingers 7.12502
rthumb -6.69924 -20.9691
lclavicle 7.95139e-016 -3.97569e-016
lhumerus -18.2207 -13.496 90.3541
lradius 54.1462
lwrist 21.7566
lhand -26.0642 22.392
lfingers 7.12502
lthumb 0.483698 52.3712
rfemur -33.3175 6.84594 19.4899
rtibia 48.5483
rfoot -18.6269 -7.12808
rtoes 5.50026
lfemur -5.82511 6.58935 -25.1564
ltibia 25.8561
lfoot -15.3101 8.93377
ltoes -5.58979
2673
root 31.7854 16.6963 -7.41919 1299.5 -89.2142 500.617
lowerback 0.6307 0.446359 -1.61481
upperback 9.29042 0.426613 -1.12569
thorax 9.43371 -0.00520876 -0.282813
lowerneck 1.42468 -0.326201 -3.10003
upperneck 14.9509 -1.96884 9.12838
head 4.318 -0.870146 3.25617
rclavicle -4.37326e-015 -7.55382e-015
rhumerus -30.7738 4.51726 -91.5537
rradius 49.8403
rwrist -1.58164
rhand -33.4561 8.89704
rfingers 7.12502
rthumb -6.65449 -20.9784
lclavicle -4.37326e-015 -7.55382e-015
lhumerus -18.2938 -13.7464 90.5526
lradius 54.6351
lwrist 21.8131
lhand -26.0999 22.7239
lfingers 7.12502
lthumb 0.449289 52.7032
rfemur -33.2495 6.89276 19.3768
rtibia 46.4364
rfoot -18.3118 -7.09998
rtoes 5.72048
lfemur -5.05928 6.53531 -25.1404
ltibia 25.2897
lfoot -15.2189 9.03182
ltoes -5.95479
